<?xml version="1.0" encoding="utf-8"?>
<!-- Generator: Adobe Illustrator 23.0.1, SVG Export Plug-In . SVG Version: 6.00 Build 0)  -->
<svg version="1.1" id="圖層_1" xmlns="http://www.w3.org/2000/svg" xmlns:xlink="http://www.w3.org/1999/xlink" x="0px" y="0px"
	 viewBox="0 0 503 300" style="enable-background:new 0 0 503 300;" xml:space="preserve">
<style type="text/css">
	.st0{fill:#2D2D2D;}
</style>
<g>
	<path class="st0" d="M405.03,219.83c-2.99-0.1-3.04-2.5-3.4-4.59c-0.76-4.41-1.47-8.84-2.15-13.27c-0.16-1-0.18-2.03-0.2-3.05
		c-0.04-2.42,0.31-2.78,2.69-2.98c0.39-0.03,0.79-0.1,1.16-0.22c3.44-1.1,4.27-0.77,5.68,2.45c2.1,4.78,4.37,9.5,4.93,14.79
		c0.11,1.05,0.64,1.42,1.75,1.24c4.2-0.66,8.43-1.18,12.63-1.89c0.67-0.11,1.49-0.82,1.76-1.46c0.81-1.93,1.45-3.94,2.05-5.95
		c0.9-3.01-0.86-5.07-3.94-4.58c-3.29,0.52-6.56,1.17-9.85,1.72c-0.46,0.08-1.06,0-1.44-0.24c-1.52-0.99-3.01-2.03-4.45-3.14
		c-1.71-1.32-1.51-2.62,0.47-3.45c1.78-0.75,2.31-1.89,2.01-3.77c-0.23-1.43-0.21-2.9-0.29-4.17c-6.03-0.77-12.18-0.99-17.16-5.02
		c0.16-0.94,0.1-1.95,0.51-2.7c1.05-1.92,2.61-3.31,4.89-3.7c4.03-0.68,8.05-1.43,12.09-2.04c1.57-0.24,2.08-0.96,1.95-2.5
		c-0.13-1.57-0.03-3.16-0.03-5.15c-1.31,0.94-2.32,1.71-3.37,2.42c-1.18,0.79-2.39,1.53-3.59,2.28c-0.91,0.57-1.78,1.02-2.62-0.19
		c-0.17-0.25-0.83-0.24-1.25-0.2c-0.56,0.06-1.1,0.26-1.65,0.42c-1.44,0.41-2.87,0.89-3.99-0.69c-1.18-1.66-1.44-3.94-0.15-5.38
		c1.8-2.01,3.75-3.94,5.85-5.63c3.63-2.92,7.5-5.53,11.11-8.47c2.42-1.97,4.54-4.29,5.34-7.5c0.12-0.49,0.56-1.03,1-1.3
		c3.71-2.28,9.11-0.47,10.67,3.58c0.9,2.33,1.61,4.73,2.52,7.05c0.43,1.11,0.12,1.67-0.86,2.16c-3.66,1.82-7.28,3.73-10.96,5.5
		c-1.21,0.58-1.86,1.32-1.56,2.62c0.6,2.63,1.28,5.25,1.95,7.87c0.28,1.1,1.14,1.09,2.04,1.01c2.77-0.25,5.54-0.64,8.32-0.67
		c2.19-0.02,4.39,0.33,6.56,0.66c0.9,0.14,1.9,0.45,1.7,1.85c-0.05,0.35,0.53,0.8,1,1.45c-2.58,1.46-5.11,3.04-7.77,4.37
		c-3.09,1.55-6.3,2.84-9.41,4.34c-0.49,0.23-1.05,0.93-1.06,1.42c-0.03,1.64,0.2,3.28,0.28,4.93c0.05,0.97,0.45,1.47,1.46,1.46
		c4.48-0.05,8.96-0.03,13.43-0.14c1.7-0.04,3.11,1.08,2.44,2.51c-2.06,4.41-1.39,8.89-0.8,13.39c0.59,4.57-1.44,8.67-2.19,13
		c-0.11,0.61-0.31,1.21-0.45,1.82c-0.63,2.73-0.62,2.78-3.49,2.76c-5.44-0.03-10.89-0.06-16.33-0.2c-3.37-0.09-6.54,0.43-9.51,2.1
		c-1.95,1.09-3.45,0.5-4.34-1.52c-0.11-0.26-0.27-0.5-0.45-0.72C404.83,222.4,404.82,222.4,405.03,219.83z"/>
	<path class="st0" d="M332.86,205.54c-4.51-0.9-8.74-1.67-11.87-5.05c-1.27-1.37-0.55-3.99,0.69-5.36c2.39-2.63,5.63-1.75,8.44-2.58
		c0.05-0.02,0.11-0.01,0.17-0.01c4.32-0.49,4.6-0.77,4.78-5.19c0.07-1.84,0.01-3.68,0.01-5.7c-3.68,1.03-5.75-1.25-7.81-3.05
		c-1.81-1.58-0.65-5.03,1.68-5.64c1.75-0.46,3.51-0.92,5.29-1.26c1.46-0.28,1.93-0.98,1.83-2.48c-0.36-5.01-2.1-9.62-3.93-14.21
		c-0.78-1.96-0.39-3.7,1.24-4.83c0.54-0.37,1.51-0.53,2.13-0.33c2.53,0.83,4.27,2.69,5.82,4.78c2.91,3.94,4.2,8.53,5.23,13.19
		c0.32,1.46,0.96,1.7,2.21,1.54c1.92-0.24,3.85-0.37,5.76-0.61c2.28-0.29,4.39,0.17,6.38,1.32c-1.19,1.28-0.89,2.04,0.95,3.14
		c0.74,0.44,1.74,1.12,1.84,1.81c0.19,1.23-0.57,2.22-1.93,2.61c-3.85,1.11-7.67,2.36-11.55,3.35c-1.48,0.38-2.23,0.96-2.48,2.49
		c-0.37,2.27-0.96,4.5-1.46,6.81c3.96,0.64,8.56-0.59,9.68,5.04c-2.89,1.78-5.8,3.76-8.89,5.42c-2.22,1.19-3.54,2.7-3.6,5.25
		c-0.02,0.67-0.2,1.33-0.34,2.23c8.29,0.3,16.72-1.27,24.59,2.89c-0.32,0.52-0.5,1.01-0.84,1.35c-1.51,1.54-1.59,2.75-0.06,4.49
		c0.84,0.96,0.72,1.68-0.39,2.09c-1.51,0.55-1.75,1.44-0.89,2.84c-2.48,1.61-5.07,2.49-8,2.55c-8.12,0.17-16.25,0.36-24.36,0.69
		c-3.51,0.14-7.01,0.62-10.51,1.03c-4.78,0.56-8.94-1.16-12.9-3.51c-0.44-0.26-0.7-1.27-0.63-1.87c0.41-3.18,2.87-5.63,6.45-6.4
		c4.88-1.04,9.77-2.05,14.68-2.94c1.51-0.27,2.18-0.94,2.24-2.44C332.56,207.8,332.75,206.62,332.86,205.54z"/>
	<path class="st0" d="M118.09,241.13c-4.54-1.32-8.33,0.05-12.04,2.78c-2.82,2.07-6.28,1.91-9.7,1.53
		c-1.16-0.13-2.69,0.21-3.56,0.92c-3.87,3.15-12.31,3.4-15.78-2.41c-1.7-2.85-3.86-5.37-4.92-8.66c-1.44-4.45,1.25-10.16,5.75-11.43
		c0.22-0.06,0.43-0.17,0.65-0.21c3.01-0.61,4.89-2.14,6.2-5.19c2.99-6.95,8.52-11.35,15.81-13.4c1.69-0.48,3.58-0.94,4.97,0.91
		c0.2,0.26,0.71,0.3,1.09,0.41c4.85,1.31,8.32,4.24,10.29,8.87c0.52,1.24,1.27,1.81,2.68,1.89c4.77,0.27,7.83,3.19,10.24,6.99
		c0.09,0.14,0.2,0.31,0.21,0.46c0.11,2.93,1.2,5.91-0.54,8.73c-0.33,0.53-0.6,1.1-0.86,1.66
		C126.48,239.43,123.18,241.79,118.09,241.13z"/>
	<path class="st0" d="M139.67,118.67c0.05,4.06,1.24,8.11,2.43,12.22c1.19,4.12,2.01,8.37,2.69,12.61c0.44,2.71-1.07,3.67-3.78,3.52
		c-2.03-0.11-4.12,0.35-6.13,0.79c-1.27,0.28-2.18,0.11-2.57-1.13c-0.7-2.19-1.71-4.4-1.81-6.64c-0.33-7.72-0.36-15.45-0.44-23.18
		c-0.06-5.44-0.08-10.89,0.03-16.33c0.04-2.15,0.45-4.29,0.76-6.42c0.2-1.36,2.3-2.51,4.21-2.34c1.54,0.14,1.83,1.23,1.91,2.54
		c0.2,3.46,0.47,6.91,0.71,10.37c3.12-0.47,3.59-1.24,2.91-4.25c-0.61-2.7-0.7-5.26,1.1-7.79c1.07-1.49,1.5-3.52,1.92-5.37
		c0.39-1.74-0.24-2.37-2.01-2.21c-1.8,0.16-3.58,0.56-5.37,0.85c-3.23,0.54-6.61-2.94-6.01-6.2c0.09-0.5,0.2-1.02,0.15-1.51
		c-0.32-3.05,0.28-4.37,3.07-5.26c4.78-1.54,9.45-3.63,14.67-3.38c2.74,0.14,5.07,1.06,6.4,3.5c1.14,2.08,2.08,4.3,2.82,6.56
		c1.47,4.47-0.22,8.46-4.3,10.84c-1.31,0.76-2.52,1.68-3.78,2.54c-1.03,0.7-0.9,1.48-0.31,2.46c1.7,2.81,3.51,5.58,4.9,8.54
		c0.86,1.83,1.07,3.98,1.49,6c0.08,0.38-0.14,0.93-0.4,1.25c-1.43,1.72-2.18,4.06-4.51,4.97c-0.24,0.1-0.41,0.5-0.52,0.8
		c-0.63,1.83-1.62,2.54-3.55,2.36C144.18,119.18,142.02,118.92,139.67,118.67z"/>
	<path class="st0" d="M256.74,190.41c-0.16-0.49-0.33-0.75-0.31-1c0.04-0.5,0.19-1,0.29-1.5c0.55,0.13,1.3,0.08,1.62,0.42
		c2.78,2.98,5.88,5.74,7.04,9.88c0.06,0.21,0.19,0.41,0.36,0.77c1.88-1.14,3.77-2.17,5.51-3.41c0.68-0.48,1.26-1.39,1.44-2.2
		c0.19-0.85-0.15-1.82-0.26-2.73c-0.75,0.13-1.52,0.17-2.23,0.4c-0.86,0.27-1.67,0.71-2.51,1.06c-1.66,0.69-4.36-0.18-5.15-1.79
		c-0.61-1.24-0.72-2.08,0.57-3.56c3.84-4.4,8.87-3.11,13.41-3.3c4.12-0.17,7.19,4.54,6.42,8.63c-0.48,2.51-1.02,5-1.5,7.51
		c-0.26,1.38-1,2.25-2.38,2.56c-0.11,0.02-0.22,0.07-0.33,0.07c-6.94,0.42-9.81,5.83-13.1,10.71c-0.05,0.07,0.01,0.21,0.02,0.49
		c2.04-0.54,4.04-1.15,6.07-1.6c4.37-0.96,8.79-1.18,13.2-0.35c4.42,0.83,7,3.82,6.92,8.36c-0.05,2.87-0.57,5.75-1.09,8.59
		c-0.57,3.12-1.23,6.23-2.13,9.27c-0.45,1.53-1.42,2.95-2.34,4.3c-1,1.47-2.58,2.01-4.32,1.97c-1.99-0.04-3.98-0.12-5.96-0.22
		c-0.43-0.02-0.92-0.15-1.27-0.39c-4.13-2.85-8.49-2.26-12.9-0.9c-1.24,0.38-2.41,0.99-3.67,1.27c-0.51,0.11-1.24-0.29-1.7-0.67
		c-0.18-0.15-0.07-1.02,0.19-1.29c2.27-2.43,2.67-5.58,3.36-8.6c0.23-1.01,0.61-1.45,1.61-1.6c5.72-0.84,11.43-1.74,17.15-2.57
		c1.26-0.18,2.09-0.76,2.07-2.02c-0.02-1.37-0.11-2.81-0.57-4.08c-0.22-0.61-1.33-1.17-2.1-1.27c-6.28-0.77-12.32,0.41-18.19,2.58
		c-1.62,0.6-2.63,0.28-3.48-1.25c-0.96-1.74-2.15-3.35-3.16-5.06c-0.82-1.39-0.37-2.46,1.22-2.44c2.23,0.02,3.14-1.22,4.04-2.97
		c1-1.96,2.38-3.72,3.5-5.62c0.34-0.58,0.73-1.54,0.48-1.95c-0.32-0.53-1.27-0.93-1.94-0.93c-1.36,0-2.24-0.5-2.96-1.61
		c-1.96-3.04-3.6-6.2-3.75-9.91C253.83,190.03,254.15,189.79,256.74,190.41z"/>
	<path class="st0" d="M175.14,243.12c-0.79-0.13-1.37-0.23-2.34-0.4c0.07,1.34,0.14,2.58,0.2,3.81c-2.21,1.5-3.62-0.5-4.99-1.23
		c-0.93,0.45-1.76,1.2-2.25,1.02c-1.91-0.73-4.65-0.43-5.24-3.11c-0.39-1.79-0.49-3.73-0.24-5.54c0.74-5.39,1.72-10.76,2.61-16.13
		c0.05-0.33,0.07-0.66-0.26-1.21c-0.84,1.32-1.69,2.63-2.51,3.96c-0.47,0.77-0.77,1.6-2.05,1.27c-0.46-0.12-1.19,0.54-1.7,0.96
		c-1.92,1.58-5.11,1.65-7.17,0.19c-0.46-0.32-1.11-0.37-1.7-0.55c-0.89-0.38-1.8-0.73-2.68-1.15c-0.28-0.13-0.64-0.41-0.67-0.67
		c-0.34-2.23-0.96-4.5-0.77-6.69c0.12-1.4,1.24-2.91,2.28-4.01c7.48-7.94,15.19-15.66,22.54-23.72c2.68-2.94,4.58-6.58,6.83-9.91
		c0.16-0.23,0.22-0.54,0.41-0.74c1.76-1.9,7.22-1.27,8.65,0.86c1.77,2.64,2.45,5.33,0.94,8.28c-1.26,2.46-2.34,5.05-3.93,7.28
		c-2.34,3.28-5.09,6.26-7.59,9.42c-1.05,1.32-1.92,2.78-3.07,4.45c0.76-0.04,1.16-0.06,1.45-0.08c0.45,1.24,0.82,2.49,1.34,3.67
		c1.57,3.57,1.49,7.32,1.16,11.06c-0.52,5.97-0.49,11.9,0.74,17.79C175.19,242.27,175.14,242.56,175.14,243.12z"/>
	<path class="st0" d="M328.32,121.66c-3.37,3.55-7.43,2.21-11.38,2.74c0.4,1.56,0.69,3.04,1.21,4.44c0.16,0.43,0.93,0.76,1.48,0.91
		c2.29,0.63,4.61,1.17,6.96,1.75c-0.61,2.16-1.3,3.88-3.92,4.05c-1.01,0.06-2.1,0.85-2.91,1.58c-1.66,1.5-3.5,2.07-5.65,1.62
		c-1.38-0.29-2.9-0.47-4.06-1.18c-1.08-0.66-1.76-1.95-2.58-2.92c1.03-1.58,1.6-2.85,1.08-4.73c-0.79-2.81-1.15-5.77-1.41-8.69
		c-0.46-5.02-0.68-10.07-1.06-15.1c-0.12-1.61,0.44-2.83,1.55-3.96c2.47-2.51,4.96-5.01,7.27-7.66c0.85-0.97,1.23-2.34,1.82-3.53
		c1.27-2.53,2.32-5.2,3.88-7.53c1.41-2.1,4.65-2.49,6.98-1.23c1.69,0.92,3.34,1.95,4.92,3.06c1.9,1.34,1.72,5.72-0.21,6.97
		c-1.19,0.77-2.39,1.53-3.58,2.3c-1.02,0.66-1.91,1.64-3.38,0.92c-0.31-0.15-1.11,0.27-1.43,0.64c-2.04,2.37-4.02,4.79-5.98,7.22
		c-0.27,0.33-0.49,0.82-0.49,1.24c-0.04,3.21-0.02,6.42-0.02,9.71c3.58,1.12,8.39-0.68,11.48,3.69c0.35-2.77,0.7-5.54,1.11-8.8
		c-1.73,0.43-3.07,0.59-4.26,1.11c-0.9,0.4-1.39,0.25-2.08-0.32c-2.59-2.19-3.37-4.1-2.57-6.45c0.43-1.25,1.16-1.99,2.58-2.07
		c1.64-0.1,3.27-0.4,4.91-0.52c1.24-0.09,2.53-0.2,3.73,0.02c3.83,0.71,4.79,2.4,5.65,6.19c1.32,5.79-0.33,11.27-0.77,16.89
		c-0.17,2.13,0.12,4.29,0.18,6.44c0.03,0.96,0.11,1.94-0.03,2.87c-0.38,2.51-0.42,2.5-2.96,2.41c-0.17-0.01-0.34,0.02-0.51,0.04
		c-1.09,0.1-2.22,1.36-3.28,0.02c-1.74-2.2-4.52-3.88-3.72-7.38C327.35,126.33,327.77,124.24,328.32,121.66z"/>
	<path class="st0" d="M198.59,168.97c1.5,1.06,2.53,1.68,3.42,2.45c0.9,0.77,1.67,1.69,2.69,2.74c0.65-0.63,1.3-1.14,1.8-1.77
		c1.31-1.64,2.56-3.34,3.82-5.02c0.7-0.93,1.55-1.48,2.78-1.16c2.64,0.7,4.91,1.82,6.47,4.29c1.07,1.71,1.27,3.31,0.33,4.94
		c-1.44,2.51-3.02,4.93-4.61,7.35c-1.71,2.62-3.52,5.17-5.21,7.8c-0.36,0.56-0.41,1.32-0.6,1.99c0.64-0.01,1.3,0.07,1.93-0.04
		c1-0.18,2.03-0.37,2.96-0.76c1.29-0.54,2.05,0.15,2.79,0.96c0.6,0.66,0.56,1.26-0.19,1.87c-0.55,0.44-0.98,1.04-1.47,1.56
		c-0.15,0.16-0.3,0.38-0.49,0.43c-2.47,0.63-4.95,1.24-7.42,1.86c-0.22,0.05-0.46,0.08-0.65,0.19c-1.6,0.93-3.02,2.12-5.17,1.02
		c-0.74-0.38-1.61,0.63-1.6,1.88c0.01,1.38,0.07,2.9-0.45,4.13c-2.22,5.27-4.65,10.46-7.01,15.68c-0.66,1.45-1.38,2.86-2.03,4.32
		c-0.73,1.65-1.57,3.02-3.53,3.61c-0.82,0.25-1.32,1.57-2,2.44c-0.61-0.04-1.31-0.08-2.18-0.13c0-1.05,0-2.2,0-3.66
		c-0.71,0.6-1.2,1.01-2,1.69c-0.22-3.19-0.25-6.01,1.17-8.64c3.79-6.99,7.62-13.95,11.42-20.94c1.52-2.81,1.65-2.58-0.37-4.83
		c-1.49-1.67-1.47-2.98-0.11-4.93c2.92-4.19,5.88-8.36,8.82-12.54c0.32-0.46,0.62-0.94,1.22-1.86c-1.42-0.08-2.51-0.14-3.83-0.22
		c0.26,0.78,0.43,1.29,0.62,1.84c-0.72,1.3-1.71,1.38-2.97,0.73c-2.32-1.19-4.7-2.28-7.02-3.49c-3.32-1.72-4.74-5.32-3.06-8.66
		c1.31-2.61,3.16-4.95,4.8-7.4c0.82-1.22,1.8-2.35,2.49-3.64c1.25-2.32,3.43-3.29,5.79-2c1.82,1,3.53,2.31,5.01,3.77
		c1.61,1.58,1.27,2.86-0.25,4.58C202.62,163.79,200.69,166.36,198.59,168.97z"/>
	<path class="st0" d="M229.92,250.97c0.26,0.81,0.49,1.55,0.73,2.28c-0.8,0-1.62,0.08-2.41-0.03c-3.86-0.55-6.71-2.85-9.42-5.43
		c-2.22-2.11-4.51-4.16-6.71-6.29c-0.91-0.88-1.5-0.84-2.33,0.12c-1.11,1.29-2.39,2.42-3.58,3.64c-1.47,1.51-2.9,3-5.25,3.13
		c-0.78,0.04-1.52,0.73-2.31,1.03c-0.67,0.25-1.45,0.61-2.09,0.48c-1.12-0.22-1.87-0.11-2.7,0.77c-0.43,0.46-1.47,0.35-2.44,0.54
		c-1.07-1.09-1.49-2.51-0.99-4.29c0.56-2.01,1.44-3.74,2.9-5.28c3.19-3.38,6.24-6.88,9.44-10.44c-1.64-1.54-3.2-3.02-4.79-4.47
		c-0.65-0.59-1.28-1.08-0.6-2.09c0.19-0.28-0.03-0.86-0.11-1.29c-0.08-0.39-0.31-0.75-0.33-1.14c-0.07-1.45-0.48-3.15,0.97-4.07
		c1.42-0.9,2.89-0.25,4.33,0.48c1.91,0.98,3.9,1.8,5.9,2.58c0.39,0.15,1.23-0.01,1.43-0.31c1.09-1.62,2.05-3.33,3.01-4.93
		c-2.63-1.53-4.94-2.82-7.19-4.2c-1.42-0.87-2.49-5.55-1.46-6.86c0.56-0.71,1.66-1.5,2.46-1.44c3.38,0.24,6.76,0.67,10.11,1.24
		c5.18,0.87,7.7,7.75,6.87,11.67c-0.7,3.34-2.11,6.55-3.41,9.73c-0.49,1.2-0.52,1.86,0.53,2.71c3.13,2.54,6.19,5.16,9.23,7.8
		c1.76,1.52,3.3,3.33,5.17,4.68c2.16,1.56,2.3,3.98,2.69,6.1c0.14,0.8-1.67,2.36-2.9,2.89
		C233.23,250.91,231.48,250.78,229.92,250.97z"/>
	<path class="st0" d="M185.65,128.56c-0.34-0.37-0.58-0.62-0.81-0.87c1.23-0.31,2.72-0.26,3.37-0.97c0.66-0.73,0.46-2.22,0.67-3.36
		c1.79-9.45,2.84-18.98,2.52-28.6c-0.16-4.91-0.05-9.88-1.68-14.66c-0.28-0.81,0.25-1.96,0.61-2.88c0.1-0.25,0.98-0.38,1.43-0.27
		c3.46,0.84,6.24,2.92,8.83,5.22c0.64,0.57,1.27,1.46,1.37,2.27c0.33,2.67,0.81,5.27,0.29,8.07c-0.61,3.37-0.49,6.89-0.47,10.35
		c0.03,5.16,0.34,10.32,0.34,15.48c0,3.62-0.28,7.23-0.52,10.85c-0.07,1-0.36,2.01-0.68,2.97c-0.84,2.53-1.71,5.05-2.65,7.54
		c-0.72,1.9-1.4,3.82-3.65,4.62c-0.6,0.21-1.06,1.14-1.36,1.83c-1.15,2.67-3.29,3.5-5.86,2.21c-0.65-0.33-1.45-0.43-2.03-0.84
		c-1.64-1.16-3.41-2.23-4.74-3.7c-1.77-1.96-3.24-4.21-4.7-6.42c-0.44-0.67-0.53-1.61-0.65-2.44c-0.16-1.11-0.16-2.24-0.29-3.35
		c-0.18-1.54,0.72-3.38,2.01-3.97c2.71-1.22,4.56-1.25,5.5,0.46C183.48,129.86,184.34,129.39,185.65,128.56z"/>
	<path class="st0" d="M53.18,95.71c-0.21-0.5-0.37-0.9-0.72-1.73c1.27-0.11,2.4-0.49,3.38-0.25c9.7,2.41,19.4,1.63,29.07,0.01
		c5.69-0.95,11.32-2.28,16.97-3.48c3.87-0.82,7.5-0.27,11.1,1.33c2.88,1.28,5.91,2.23,8.86,3.38c1.09,0.42,2.13,0.98,3.19,1.48
		c-0.06,0.17-0.12,0.33-0.19,0.5c-1.66,0.14-3.33,0.27-5.42,0.44c0.68,0.78,0.95,1.1,1.28,1.48c-0.28,0.19-0.49,0.36-0.73,0.49
		c-4.85,2.66-10.21,3.69-15.52,4.85c-9.45,2.07-19.09,2.63-28.7,3.47c-5.71,0.5-11.31,0.34-16.89-1.06
		c-2.78-0.69-4.81-2.09-6.07-4.7c-0.8-1.66-1.86-3.21-2.93-5.03C51.07,96.47,52,96.14,53.18,95.71z"/>
	<path class="st0" d="M212.57,124.28c-0.07-0.73-0.13-1.35-0.21-2.19c1.13-0.17,2.47-0.37,3.83-0.57c-0.65-2.37-0.43-2.72,1.77-3.34
		c1.47-0.42,2.92-0.94,4.4-1.31c0.95-0.23,1.33-0.73,1.3-1.67c-0.07-2.1,0-4.21-0.21-6.3c-0.06-0.57-0.8-1.35-1.38-1.53
		c-1.56-0.48-3.24-0.58-4.81-1.06c-0.71-0.22-1.54-0.86-1.79-1.51c-0.18-0.47,0.48-1.29,0.81-1.93c0.2-0.39,0.65-0.74,0.68-1.13
		c0.2-2.41,2.02-2.45,3.74-2.64c0.68-0.08,1.43,0.08,2.02-0.17c0.46-0.19,1.02-0.85,1.01-1.29c-0.02-1.47-0.33-2.93-0.42-4.4
		c-0.07-1.07-0.59-1.36-1.55-1.22c-0.96,0.14-1.94,0.13-2.88,0.34c-4.64,1.04-8.05-1.96-6.83-7.47c0.34-1.54,0.65-3.11,1.17-4.59
		c0.2-0.56,0.95-1.28,1.48-1.3c4.63-0.22,9.22-1.36,13.9-0.53c1.03,0.18,2.15-0.05,3.22-0.17c2.44-0.26,4.61,0.52,6.64,1.71
		c1.2,0.71,1.6,3.75,0.32,5.29c-1.34,1.61-3.13,2.89-4.88,4.08c-1.14,0.78-2.55,1.17-3.73,1.68c0.36,2.32,0.69,4.49,1.05,6.81
		c1.33-0.15,2.66-0.29,3.99-0.45c1.35-0.16,1.88,0.42,1.72,1.78c-0.18,1.56-0.93,2.74-2.38,3.25c-2.07,0.73-2.72,2.03-2.51,4.17
		c0.21,2.12,0.05,4.28,0.05,5.92c2.24,0.76,4.09,1.39,6.53,2.22c-1.73,2-3.02,3.61-4.43,5.11c-2.28,2.43-4.58,4.85-6.96,7.18
		c-1.66,1.63-3.85,1.6-5.94,1.29c-1.94-0.29-3.83-0.78-5.39-2.27C215.01,125.25,213.66,124.86,212.57,124.28z"/>
	<path class="st0" d="M294.73,195.33c-0.5-0.8-0.98-1.49-1.37-2.22c-0.71-1.33-1.43-2.67-2.04-4.06c-0.31-0.71-0.36-1.52-0.58-2.27
		c-0.71-2.37-1.37-4.75-2.19-7.07c-0.59-1.65-1.93-2.03-3.6-1.73c-6.58,1.19-13.17,2.33-19.76,3.51c-4.92,0.88-9.82,2.02-14.78,0.13
		c-2.29-0.88-3.12-1.7-3.82-4.29c0.57-0.15,1.14-0.3,1.72-0.45c0.06-0.09,0.17-0.19,0.16-0.28c-0.22-3.13,0.44-3.82,3.69-3.86
		c0.97-0.01,1.93-0.03,2.9-0.09c1.13-0.07,2.25-0.19,3.7-0.32c-1.86-2.96-3.46-5.86-5.98-8.13c-0.46-0.41-0.85-0.9-1.22-1.39
		c-0.12-0.15-0.14-0.6-0.08-0.64c2.41-1.19,0.66-3.79,1.9-5.52c0.87-1.22,1.7-2.04,2.97-1.47c2.93,1.32,6.12,2.45,8.48,4.5
		c2.69,2.33,4.66,5.51,6.78,8.45c0.5,0.7,0.35,1.88,0.3,3.38c2.09-0.25,4.27-0.17,6.24-0.8c4.26-1.37,8.62-1.53,12.98-1.37
		c3.53,0.13,7.87,3.99,8.85,7.4c0.11,0.38,0.29,0.86,0.15,1.16c-0.92,2.03-0.58,4.02-0.19,6.11c0.16,0.87-0.47,1.91-0.82,2.84
		c-0.56,1.46-1.39,2.85-1.73,4.36C297.02,192.86,296.44,194.23,294.73,195.33z"/>
	<path class="st0" d="M349.83,138.04c0.08-0.14,0.22-0.37,0.39-0.65c-0.38-0.14-0.69-0.26-1.01-0.39c-1.6-0.65-2.55-1.83-2.93-3.5
		c-0.31-1.32-0.19-2.7,1.04-3.32c1.01-0.51,2.32-0.53,3.5-0.52c0.68,0.01,1.34,0.65,2.04,0.76c2.88,0.48,4.51-0.6,5.17-3.46
		c1.99-8.62,3.96-17.24,5.91-25.87c0.47-2.08,0.09-2.3-2.07-2.11c-2.16,0.19-4.36,0.16-6.53,0.06c-0.54-0.02-1.29-0.55-1.52-1.04
		c-0.19-0.4,0.15-1.17,0.45-1.65c1.04-1.68,2.25-3.26,3.25-4.96c0.85-1.46,1.94-2.38,3.67-2.29c3.74,0.2,7.48,0.45,11.22,0.68
		c1.53,0.09,2.38,0.94,3.09,2.28c1.22,2.31,1.22,4.52,0.5,7.01c-2.63,9.15-5.16,18.34-7.53,27.56c-0.82,3.17-1.08,6.48-1.56,9.74
		c-0.47,3.22-2.65,5.25-5.16,6.79c-1.36,0.84-3.19,1.18-4.77-0.15c-1.47-1.24-3-2.42-4.56-3.54
		C351.66,138.92,350.77,138.55,349.83,138.04z"/>
	<path class="st0" d="M207.74,72.22c0.47,0.31,0.85,0.56,1.22,0.81c-0.14,0.3-0.17,0.52-0.28,0.56c-0.61,0.25-1.23,0.62-1.85,0.65
		c-9.75,0.48-19.5,0.86-29.25,1.39c-2.37,0.13-4.71,0.69-7.07,1.04c-3.39,0.51-6.99-2-7.68-5.37c-0.11-0.55-0.13-1.13-0.24-1.68
		c-0.25-1.25,0.31-1.94,1.47-2.28c8.77-2.52,17.45-5.42,26.69-5.83c1.36-0.06,2.72-0.21,4.06-0.47c3.83-0.75,6.87,0.73,9.61,3.2
		c0.45,0.4,0.96,0.82,1.51,1.01c3.24,1.08,4.02,3.01,2.37,5.97C208.14,71.48,208.01,71.72,207.74,72.22z"/>
	<path class="st0" d="M157.23,167.14c-0.21-1.33,0.26-2.31,1.52-2.89c0.46-0.21,0.92-0.45,1.37-0.69c2.96-1.55,6.36-0.89,8.44,1.7
		c1.46,1.81,2.8,3.72,4.27,5.53c0.79,0.97,0.64,1.67-0.2,2.48c-1.52,1.45-2.91,3.03-4.46,4.45c-4.53,4.16-7.74,9.33-11.15,14.35
		c-0.83,1.22-1.78,2.35-2.7,3.51c-0.7,0.88-1.3,1.81-2.76,0.98c-0.41-0.23-1.42,0.44-2.08,0.83c-1.4,0.84-2.68,2.06-4.42,0.65
		c-1.46-1.19-2.2-3.16-1.38-5.22c0.9-2.24,2.03-4.42,3.31-6.46c2.72-4.31,5.75-8.43,8.37-12.79c1.13-1.88,1.57-4.17,2.32-6.27
		C157.53,167.25,157.38,167.19,157.23,167.14z"/>
	<path class="st0" d="M307.08,196.33c-0.76-0.2-1.37-0.37-2.11-0.57c0.21-4.66,1.15-9.24,3.01-13.5c2.85-6.52,4.29-13.22,3.86-20.33
		c-0.15-2.4,2.78-4.03,4.88-2.75c2.83,1.73,5.36,3.86,7.58,6.31c0.57,0.63,1.07,1.61,1.06,2.43c-0.05,3.84,0.01,7.72-0.54,11.5
		c-0.53,3.62-3.19,6.11-6.15,8.01c-2.17,1.39-4.59,2.38-6.92,3.52C309.43,192.1,307.46,193.53,307.08,196.33z"/>
	<path class="st0" d="M67.24,165.65c-2.56,0.54-4.88,0.64-7.02-1.51c-1.03-1.03-2.87-1.23-4.28-1.92c-2.37-1.17-2.67-2.87-1.04-4.91
		c1.38-1.73,2.69-3.51,3.96-5.32c1.13-1.62,2.51-2.57,4.57-2.86c1.76-0.25,3.4-1.2,5.15-1.69c0.99-0.27,2.09-0.09,3.09-0.34
		c2.3-0.56,4.57-1.26,6.88-1.91c0.15,0.37,0.4,0.97,0.73,1.76c0.6-0.49,1.06-0.86,1.6-1.3c0.1,0.58,0.2,1.1,0.29,1.59
		c2.02,0.22,2.22,0.66,1.67,2.62c-1.86,6.59-5.96,11.8-10.4,16.76C70.29,169.01,68.35,168.55,67.24,165.65z"/>
	<path class="st0" d="M119.4,153.71c-1.34,2.29-2.43,4.16-3.6,6.16c-0.28-0.39-0.6-0.85-0.92-1.31c-0.15,0.05-0.3,0.09-0.45,0.14
		c0,0.51,0.03,1.03-0.01,1.54c-0.03,0.38-0.13,1.05-0.27,1.07c-1.77,0.24-1.38,1.62-1.5,2.88c-2.18-1.36-3.33-4.32-6.36-4.05
		c-2.84-2.88-5.85-5.71-8.57-8.81c-1.05-1.2-1.53-2.96-2.02-4.54c-0.14-0.45,0.47-1.55,0.96-1.72c2.29-0.8,4.66-1.39,7.01-2.01
		c0.29-0.08,0.84-0.02,0.95,0.16c0.93,1.59,2.3,0.8,3.49,0.63c1.12-0.16,1.74,0.07,2.5,1.08c1.24,1.65,2.93,2.95,4.41,4.42
		C116.53,150.83,118.02,152.34,119.4,153.71z"/>
	<path class="st0" d="M341.01,98.53c0.42-0.94,0.66-1.76,1.11-2.46c2.77-4.33,4.93-8.93,6.46-13.84c0.88-2.83,2.76-3.73,5.48-2.55
		c1.8,0.78,3.57,1.74,5.15,2.9c1.57,1.15,1.5,2.13,0.28,3.6c-3.96,4.78-6.66,10.25-8.68,16.07c-0.92,2.64-4.17,4.68-6.87,4.02
		c-0.41-0.1-0.92-0.55-1.04-0.94C342.2,103.08,341.62,100.79,341.01,98.53z"/>
	<path class="st0" d="M376.89,160.6c4.08-0.11,7.35,1.42,10.03,4.54c2.33,2.71,4.94,5.17,5.93,8.8c0.94,3.5-1.18,6.43-4.66,5.59
		c-6.2-1.51-12.08-3.96-15.34-10c-0.95-1.77-1.27-3.92-1.64-5.94c-0.32-1.75,1.07-2.38,2.46-2.68
		C374.72,160.67,375.82,160.69,376.89,160.6z"/>
	<path class="st0" d="M390.05,207.34c0.29,1.77,0.42,3.33,0.84,4.81c0.19,0.67,0.81,1.4,1.44,1.75c2.77,1.57,3.27,3.33,1.51,6.05
		c-2.46,3.81-5.67,6.03-10.53,5.79c-3.29-0.16-6.45-0.17-9.11-2.48c-1.15-1-1.41-2.56-0.61-3.77c3.84-5.76,9.41-9.25,15.59-11.94
		C389.42,207.46,389.7,207.43,390.05,207.34z"/>
	<path class="st0" d="M248.86,197.39c-0.06,2.27-1.1,3.84-2.83,4.75c-0.6,0.32-1.7-0.08-2.48-0.37c-1.61-0.6-3.18-1.32-4.74-2.05
		c-0.37-0.17-0.74-0.52-0.94-0.88c-0.95-1.74-1.9-3.49-2.73-5.29c-0.26-0.57-0.46-1.47-0.2-1.94c1.76-3.13,1.35-6.63,1.88-9.96
		c0.26-1.65,0.01-3.43,1.72-4.57c0.34-0.23,0.32-0.96,0.59-1.37c0.35-0.52,0.8-1.29,1.27-1.33c0.51-0.05,1.25,0.5,1.59,0.99
		c2.42,3.46,3.73,7.3,4.33,11.5c0.45,3.12,1.49,6.15,2.26,9.22C248.72,196.58,248.8,197.08,248.86,197.39z"/>
	<path class="st0" d="M105.08,197.42c-0.49-0.17-1.34-0.34-2.06-0.74c-2.18-1.21-4.35-2.45-6.42-3.83
		c-0.49-0.32-0.85-1.29-0.77-1.89c0.13-1.04,0.53-2.09,1.01-3.04c1.12-2.23,2.29-4.43,3.55-6.58c2.51-4.27,7.31-4.41,10.09-0.34
		c3.36,4.91,3.24,9.65-0.42,14.23C108.89,196.69,107.27,197.32,105.08,197.42z"/>
	<path class="st0" d="M254.92,239.58c-0.46-0.39-0.8-0.66-1.23-1.03c-0.32,0.91-0.6,1.7-0.93,2.62c-2.18-1.63-3.81-3.71-4.43-6.22
		c-1.4-5.6-2.49-11.27-3.69-16.92c-0.04-0.21,0.04-0.44,0.02-0.3c0.73-0.69,1.17-1.26,1.75-1.6c0.48-0.28,1.27-0.55,1.66-0.34
		c1.47,0.78,3.07,1.54,4.19,2.71c3.03,3.17,3.85,7.35,4.74,11.47c0.59,2.75,0.8,5.39-1.27,7.71
		C255.34,238.13,255.24,238.81,254.92,239.58z"/>
	<path class="st0" d="M131.91,205.72c-0.07,3.65-2.58,5.12-5.46,3.52c-1.53-0.85-2.98-1.87-4.43-2.87
		c-0.45-0.31-0.94-0.76-1.11-1.25c-0.7-1.92-1.67-3.58-3.41-4.75c-0.25-0.17-0.42-0.74-0.34-1.05c0.57-2.31,1.1-4.63,1.86-6.88
		c0.51-1.51,1.78-2.06,3.42-1.86c5.17,0.63,8.61,4.55,8.75,9.82C131.24,202.31,131.7,204.21,131.91,205.72z"/>
	<path class="st0" d="M75.69,202.18c0.58-4.57,0.68-8.59,2.71-12.27c1.06-1.92,2.67-2.76,4.59-3.07c0.65-0.11,1.62,0.44,2.12,0.99
		c1.13,1.26,2.08,2.69,3.05,4.09c1.89,2.73,0.96,8.51-1.77,10.98c-0.8,0.72-1.73,1.3-2.51,2.04c-1.54,1.45-3.14,1.31-4.81,0.32
		c-0.78-0.46-1.67-0.8-2.32-1.4C76.18,203.31,75.88,202.49,75.69,202.18z"/>
	<path class="st0" d="M68.88,223.93c-1.89-0.55-3.85-0.94-5.66-1.67c-2.36-0.96-3.83-5.58-2.67-7.85c0.57-1.11,1.09-2.25,1.73-3.31
		c0.98-1.63,2.36-2.69,4.33-2.95c0.94-0.12,1.85-0.5,2.78-0.76c1.38-0.38,2.67-0.03,3.14,1.29c1.42,3.98,3.04,7.94,0.79,12.27
		C72.33,222.88,71.1,223.85,68.88,223.93z"/>
	<path class="st0" d="M394.11,190.05c-2.56,0.96-3.01,3.12-3.52,5.13c-0.43,1.71-1.29,3-2.75,3.89c-0.46,0.28-1.16,0.49-1.63,0.35
		c-2.49-0.76-4.98-1.53-7.38-2.53c-2.48-1.03-4.25-2.71-4.21-5.74c0.02-1.76,0.8-2.88,2.41-3.23c3.48-0.76,6.99-1.38,10.5-2.02
		c0.37-0.07,0.84-0.06,1.17,0.11C390.61,187.01,392.6,187.94,394.11,190.05z"/>
	<path class="st0" d="M344.81,244.94c-0.62,1.1-1.16,2.07-1.7,3.03c-0.64,1.14-1.19,2.33-1.94,3.39c-0.52,0.73-1.31,1.27-1.98,1.89
		c-0.73-0.81-1.92-1.53-2.1-2.45c-0.63-3.15-0.98-6.37-1.24-9.58c-0.05-0.59,0.74-1.66,1.32-1.8c1.1-0.27,1.28,0.8,1.39,1.67
		c0.26,2.17,0.51,4.34,0.82,7.01c1.33-2.17,2.34-3.98,3.53-5.66c0.54-0.76,1.51-1.77,2.2-1.71c0.72,0.06,1.44,1.21,1.97,2.02
		c0.58,0.89,0.94,1.93,1.48,3.09c0.77-1.41,1.39-2.72,2.16-3.92c1.31-2.04,2.99-2.33,4.87-0.78c0.8,0.66,1.73,1.53,1.96,2.47
		c0.67,2.68,1.06,5.44,1.43,8.19c0.06,0.42-0.55,0.94-0.85,1.41c-0.51-0.33-1.33-0.56-1.48-1.01c-0.41-1.22-0.51-2.55-0.77-3.82
		c-0.39-1.92-0.7-3.89-2.61-5.58c-0.95,2.63-1.79,5.06-2.71,7.46c-0.28,0.73-0.8,1.36-1.21,2.03c-0.73-0.56-1.74-0.97-2.14-1.71
		c-0.82-1.54-1.3-3.25-1.93-4.89C345.21,245.48,345.05,245.31,344.81,244.94z"/>
	<path class="st0" d="M253.44,129.86c-0.96,1.55-1.6,2.94-2.57,4.05c-1.23,1.4-2.72,2.57-4.1,3.84c-1.22,1.12-3.12,1.1-3.83-0.37
		c-1.06-2.2-3.03-3.17-4.86-4.34c-1.01-0.65-1.22-1.23-1.07-2.47c0.4-3.36,2.37-5.37,5.09-6.97c0.88-0.52,1.52-0.54,2.29,0.11
		c1.16,1,2.39,1.93,3.56,2.91c1.04,0.87,1.95,1.88,3.61,1.17C251.8,127.67,252.66,128.98,253.44,129.86z"/>
	<path class="st0" d="M459.31,247.73c-1.49,0-2.62,0-3.75,0c-4.03-0.02-5.75-1.5-5.49-4.72c0.28-3.5,3.27-6.03,6.64-5.5
		c0.85,0.13,1.72,0.54,2.43,1.04c0.33,0.23,0.51,1.05,0.36,1.46c-0.1,0.28-0.91,0.49-1.36,0.43c-1.62-0.22-3.1-0.12-4.04,1.44
		c-0.78,1.3-0.36,2.04,1.12,2.09c1.59,0.05,3.19-0.03,4.77,0.08c3.14,0.22,4.32,2.22,3.01,5.03c-1.47,3.14-3.43,5.82-7.11,6.48
		c-0.8,0.14-1.84-0.1-2.5-0.56c-0.43-0.3-0.63-1.39-0.45-1.97c0.18-0.57,0.96-1.33,1.5-1.36
		C456.94,251.57,458.03,249.87,459.31,247.73z"/>
	<path class="st0" d="M228.36,198.38c-1.45-0.14-2.63-0.26-3.93-0.39c-0.04,0.48,0.02,0.9-0.13,1.21c-0.17,0.35-0.49,0.75-0.84,0.86
		c-0.25,0.08-0.8-0.19-0.94-0.45c-2.51-4.53-5.68-8.73-6.69-13.98c-0.25-1.29,0.48-1.45,1.34-1.65c3.08-0.71,7.37,1.48,9.15,4.63
		C228,191.59,228.02,194.88,228.36,198.38z"/>
	<path class="st0" d="M438.09,246.68c-1.47,0-2.5,0.11-3.48-0.05c-0.48-0.08-1.26-0.7-1.23-1.02c0.04-0.53,0.54-1.14,1.02-1.47
		c0.43-0.3,1.09-0.38,1.64-0.35c2.03,0.11,2.47-1.01,2.45-2.76c-0.01-1.47,0.2-2.94,0.36-4.41c0.09-0.88,0.31-1.79,1.46-1.69
		c1.16,0.1,1.65,0.87,1.56,2.01c-0.15,1.97-0.3,3.94-0.46,6c1.33,0.1,2.6,0.05,3.77,0.35c0.66,0.17,1.52,0.87,1.64,1.47
		c0.24,1.17-0.84,1.24-1.71,1.28c-1.24,0.06-2.47,0.11-3.9,0.17c-0.13,2.29-0.25,4.53-0.4,7.11c1.31-0.56,2.37-1.01,3.43-1.47
		c1.3-0.56,2.57-1.21,3.91-1.64c0.67-0.22,1.46-0.05,2.19-0.05c-0.33,0.78-0.43,1.95-1.02,2.28c-2.49,1.44-5.06,2.82-7.73,3.88
		c-2.01,0.8-3.35-0.23-3.47-2.41C437.99,251.54,438.09,249.17,438.09,246.68z"/>
	<path class="st0" d="M329.84,248.65c-1.07,1.21-1.87,2.22-2.78,3.12c-0.76,0.75-1.56,1.52-2.48,2.04c-2.1,1.18-4.15,0.37-4.84-1.96
		c-1.11-3.73-0.49-7.42,0.69-11.02c0.13-0.41,1.07-0.95,1.36-0.82c0.5,0.23,1.1,0.93,1.09,1.43c-0.02,1.46-0.34,2.92-0.48,4.39
		c-0.11,1.13-0.19,2.27-0.16,3.39c0.01,0.45,0.26,1.12,0.59,1.27c0.33,0.15,1-0.11,1.35-0.4c2.48-2.06,4.04-4.71,4.78-7.85
		c0.19-0.82,0.02-1.98,1.4-1.93c1.33,0.05,1.61,0.99,1.77,2.09c0.51,3.54,1.06,7.07,1.6,10.6c0.16,1.08-0.1,2.03-1.25,2.26
		c-1.26,0.25-1.42-0.82-1.61-1.72C330.54,252.04,330.23,250.54,329.84,248.65z"/>
	<path class="st0" d="M393.64,245.8c0.97-1.51,1.73-2.81,2.6-4.03c2.12-2.99,4.66-3.01,6.3,0.25c1.2,2.39,1.76,5.12,2.43,7.74
		c0.1,0.38-0.7,1.16-1.24,1.46c-0.23,0.12-1.12-0.45-1.3-0.87c-0.52-1.25-0.77-2.61-1.24-3.88c-0.38-1.04-0.93-2.02-1.63-3.49
		c-0.86,1.09-1.6,1.78-2.03,2.62c-1.12,2.16-2.05,4.43-3.21,6.57c-0.31,0.56-1.21,1.2-1.76,1.13c-0.54-0.07-1.3-0.92-1.41-1.53
		c-0.7-3.79-1.28-7.6-1.8-11.42c-0.08-0.56,0.4-1.2,0.62-1.81c0.73,0.37,1.88,0.56,2.11,1.13c0.64,1.61,0.91,3.38,1.32,5.08
		C393.46,244.99,393.52,245.24,393.64,245.8z"/>
	<path class="st0" d="M308.32,236.85c0.21,1.55,0.34,3.07,0.68,4.53c0.09,0.38,0.85,0.82,1.32,0.85c1.7,0.1,3.41-0.03,5.11,0.08
		c0.82,0.05,1.61,0.46,2.4,0.96c-2.36,2.36-5.55,1.13-8.2,2.22c0.11,1.84,0.32,3.7,0.28,5.55c-0.02,0.69-0.63,1.38-0.97,2.06
		c-0.55-0.63-1.46-1.2-1.58-1.9c-0.75-4.36-1.38-8.74-1.93-13.12c-0.14-1.16-0.51-1.6-1.67-1.51c-0.95,0.07-1.89-0.1-1.95-1.35
		c-0.06-1.24,0.78-1.44,1.78-1.53c3.89-0.37,7.7,0.04,11.44,1.12c0.62,0.18,1.17,0.59,2.11,1.09
		C314.2,238.09,311.17,236.07,308.32,236.85z"/>
	<path class="st0" d="M353.9,118.29c-1.13,0.98-2.12,1.81-3.07,2.67c-1.37,1.24-4.02,1.28-5.21-0.11c-1.05-1.22-1.9-2.62-2.76-3.99
		c-0.21-0.33-0.2-0.89-0.1-1.29c0.26-0.98,3.5-3.11,4.49-2.85c2.76,0.74,5.78,1.21,6.37,4.85
		C353.66,117.83,353.81,118.08,353.9,118.29z"/>
	<path class="st0" d="M419.25,249.97c-0.41,0.55-0.7,1.28-1.24,1.61c-2.78,1.69-5.72,1.91-8.52,0.18c-2.74-1.69-3.38-4.48-2.98-7.44
		c0.44-3.2,2.08-5.71,5.38-6.48c1.04-0.24,2.33,0.4,3.45,0.78c0.27,0.09,0.49,0.77,0.45,1.15c-0.03,0.23-0.6,0.41-0.94,0.57
		c-0.14,0.07-0.34,0.02-0.5,0.03c-4.06,0.3-5.97,3.1-4.82,7.06c0.59,2,2.51,3.06,4.87,2.68c1.49-0.24,2.99-0.47,4.48-0.7
		C419.01,249.6,419.13,249.78,419.25,249.97z"/>
	<path class="st0" d="M265.08,124.88c0.09-0.87,0.08-1.27,0.17-1.65c0.54-2.42,1.63-2.87,3.75-1.61c2.41,1.44,3.45,3.65,3.54,6.36
		c0.03,0.94-0.14,1.83-1.34,2c-0.22,0.03-0.42,0.15-0.63,0.25c-2.83,1.36-2.88,1.39-4.15-1.47
		C265.82,127.39,265.44,125.91,265.08,124.88z"/>
	<path class="st0" d="M255.91,131.92c-1.61-1.06-2.98-5.33-2.11-7.54c0.49-1.25,1.96-1.96,3.05-1.19c2.11,1.5,4.23,3.08,4.76,5.91
		c0.29,1.57-0.17,1.99-1.73,2.02C258.71,131.15,257.55,131.57,255.91,131.92z"/>
	<path class="st0" d="M277.32,128.72c-1.85-1.53-3.1-3.52-2.57-6.13c0.24-1.16,0.94-2.23,1.5-3.3c0.11-0.21,0.59-0.37,0.87-0.32
		c2.26,0.33,5.24,3.83,5.21,6.09c-0.02,1.42-0.25,2.52-2.18,2.44C279.28,127.46,278.38,128.24,277.32,128.72z"/>
	<path class="st0" d="M287.93,106.19c-4.08-0.95-8.17-1.35-12.33-1.03c-1.39,0.11-2.79,0.19-4.44,0.3c0.14-1.7,0.15-3.22,0.41-4.71
		c0.61-3.43,2.34-4.9,5.88-5.03c1.24-0.05,2.5,0.1,3.75,0.15c0.49,0.02,0.98,0,1.59,0c-0.11-2.1,1.29-2.82,2.92-3.35
		c-0.31-0.37-0.53-0.63-0.74-0.89c-2.8-3.51-5.65-4.33-10.01-2.96c-0.74,0.23-1.58,0.16-2.37,0.23c-0.28-3.53,0.11-4.18,2.98-5.4
		c1.29-0.55,2.69-5.2,1.82-6.27c-0.29-0.35-0.84-0.56-1.31-0.68c-1.01-0.27-2.05-0.45-3.27-0.71c0.52-1.16,0.96-2.11,1.39-3.06
		c-0.6-0.55-1.16-1.06-1.83-1.68c4.14-1.9,8.48-0.28,12.76-1.36c-0.79-0.7-1.36-1.2-1.94-1.72c0.28-0.52,0.51-0.91,0.72-1.31
		c0.61-1.16,1.32-2.31,0.35-3.64c-1.05-1.43-2.09-2.4-4.22-2.09c-4.2,0.6-8.45,1-12.69,1.12c-4.76,0.14-9.54-0.11-14.31-0.23
		c-1.43-0.04-2.58,0.1-2.21,2.02c-1.07,0.06-1.96,0.11-2.82,0.16c-0.45,2.38-0.02,3.35,1.9,4.47c0.83,0.48,1.66,0.99,2.52,1.41
		c2.78,1.37,5.46,3.32,8.78,1.31c0.5-0.3,1.21-0.28,1.83-0.33c1.09-0.08,1.76,0.36,1.71,1.56c-0.21,5.7,1.26,4.4-4.22,5.16
		c-0.11,0.02-0.23,0.03-0.34,0.05c-3.43,0.43-3.35,0.4-4.83-2.78c-0.52-1.12-1.4-2.69-2.34-2.86c-1.98-0.36-4.1,0.14-6.16,0.14
		c-1.39,0.01-1.22,1.54-2,1.87c-1.15,0.48-1.12,1.09-0.96,2.11c0.56,3.52,1.24,6.97,0.56,10.64c-0.91,4.89-1.31,9.88-1.88,14.83
		c-0.15,1.32,0.28,2.37,1.54,3.15c1.06,0.65,1.91,1.63,3.15,2.74c0.2-0.45,0.42-0.92,0.61-1.36c0.54,0.45,0.83,0.69,1.47,1.22
		c0.94-1.38,2-2.57,2.64-3.94c1.72-3.73,1.77-3.83,5.85-3.65c0.79,0.04,1.59,0.03,2.38,0.1c1.08,0.09,1.66,0.66,1.55,1.8
		c-0.12,1.24-0.42,2.5-0.33,3.72c0.13,1.69-0.77,2.3-2.14,2.45c-1,0.11-2.03-0.06-3.04-0.1c-0.62-0.02-1.3-0.21-1.84-0.02
		c-2.68,0.96-5.31,2.03-8.06,3.1c0.48,0.53,1.37,1.11,1.59,1.88c0.18,0.63-0.43,1.49-0.73,2.39c1.74,1.14,3.8,2.49,5.87,3.82
		c0.23,0.15,0.54,0.26,0.81,0.24c2.41-0.13,4.89-0.01,7.22-0.5c2.93-0.62,5.74-1.77,8.61-2.66c4.11-1.28,8.27-2.04,12.58-1.18
		c2.76,0.55,3.68,1.96,3.28,4.57c-0.83,5.38-3.01,10.28-5.33,15.13c-0.82,1.7-1.58,1.87-3.26,0.89c-0.72-0.42-1.42-1.09-2.19-1.2
		c-3.16-0.42-6.17,0.35-9.07,1.55c-0.31,0.13-0.52,0.68-0.63,1.08c-0.46,1.62,0.8,2.38,1.91,3.28c-0.4,0.38-0.63,0.78-0.95,0.88
		c-1.14,0.33-1.19,1.31-0.99,2.06c0.15,0.55,0.88,1.1,1.47,1.37c2.69,1.19,5.41,2.33,8.16,3.38c0.91,0.35,2.04,0.67,2.92,0.43
		c2.02-0.53,3.37,0.2,4.67,1.6c0.73,0.78,1.67,1.35,2.42,1.94c4.23-8.12,8.47-15.83,12.26-23.75c1.28-2.67,1.81-5.85,2.04-8.85
		C299.41,114.1,292.3,107.21,287.93,106.19z M264.02,88.92c-0.22,0.78-1.16,1.78-1.91,1.9c-1.76,0.28-3.59,0.09-5.36,0.09
		c-0.19-0.24-0.25-0.28-0.25-0.33c-0.38-3.19-0.21-3.38,2.94-3.37c0.96,0,1.92,0.01,2.87,0.09
		C263.31,87.38,264.32,87.88,264.02,88.92z"/>
	<path class="st0" d="M115.92,63.1c-0.39-2.71-2.41-4.79-5.27-5.28c-1.34-0.23-2.7-0.39-4.06-0.48c-1.13-0.08-1.43-0.57-1.56-1.7
		c-0.21-1.77-0.72-3.53-1.24-5.24c-0.41-1.33-1.58-1.93-2.83-1.62c-1.26,0.31-2.73,0.78-3.56,1.69c-2.66,2.9-5.52,5.76-5.99,10.03
		c-0.06,0.54-0.66,1.3-1.17,1.47c-1.19,0.39-2.49,0.48-4.09,0.75c1.12-2.87,0.01-4.91-1.78-6.4c-3.43-2.86-7.04-5.52-10.67-8.15
		c-0.52-0.37-1.59-0.31-2.27-0.07c-2.47,0.87-3.77,2.97-4.93,5.14c-0.14,0.27-0.13,0.66-0.08,0.99c0.49,3.4,1,6.78,3.27,9.6
		c0.7,0.87,1.13,1.94,1.79,3.11c-0.88,0.13-1.58,0.27-2.29,0.32c-2.38,0.16-4.76,0.38-7.14,0.41c-2.55,0.02-4.26,1.47-5.76,3.19
		c-1.38,1.58-1.3,4.39,0.32,5.57c2.5,1.82,5.19,3.49,8.53,3.2c2.55-0.22,5.1-0.44,7.63-0.79c1.16-0.16,1.57,0.23,1.64,1.29
		c0.11,1.64,0.27,3.28,0.41,4.92c0.2,2.22,0.97,4.17,2.79,5.42c0.71-0.09,1.56-0.18,1.9,0.19c1.05,1.15,2.22,1.13,3.4,0.54
		c1.39-0.69,2.69-1.59,4.11-2.44c-0.51-0.76-0.85-1.27-1.41-2.11c1.99-0.29,3.76-0.55,5.51-0.8c0.11,0.37,0.19,0.66,0.27,0.93
		c3.19-0.61,6.29-1.72,9.35,0.13c0.19,0.11,0.43,0.15,0.65,0.18c2.04,0.34,3.96-1.01,4.24-3.02c0.58-4.16,1.19-8.32,1.67-12.49
		c0.21-1.81,0.76-3.08,2.71-3.6c1.47-0.39,2.86-1.1,4.26-1.71C115.65,65.68,116.13,64.58,115.92,63.1z M84.91,82.69
		c-0.15-2.12-0.35-4.24-0.4-6.37c-0.01-0.4,0.54-0.99,0.98-1.18c1.39-0.6,2.84-1.04,4.4-1.59C91.24,79.97,89.57,82.68,84.91,82.69z"
		/>
	<path class="st0" d="M109.55,116.25c-0.09-1.36-0.66-3.02-1.61-3.93c-2.61-2.51-5.81-4.13-9.44-4.76c-2.44-0.42-4.69-0.01-6.9,1.17
		c-1.38,0.74-2.95,1.17-4.48,1.55c-1.81,0.45-3.69,0.65-5.51,1.07c-0.69,0.16-1.31,0.62-1.84,0.88c2.14,3.89,5.57,4.54,9.27,4.34
		c-0.44,3.99-0.83,4.31-3.85,4.04c-0.87-1.12-1.45-2.01-2.18-2.76c-0.79-0.81-1.69-1.52-2.59-2.22c-2.35-1.82-4.84-3.54-7.87-3.81
		c-3.6-0.32-7.63,1.36-6.3,6.29c0.44,1.63,0.5,3.36,0.67,5.05c0.35,3.44,0.37,6.96,1.1,10.31c0.39,1.8,1.82,3.5,3.14,4.9
		c0.47,0.5,1.99-0.01,3.03-0.03c0.25-0.01,0.51,0.09,0.8,0.15c-0.76,1.61-0.59,2.4,0.77,3.17c5.53,3.12,11.25,2.51,16.7,0.12
		c2.07-0.91,4.01-1.58,6.2-1.67c1.36-0.05,1.78-0.78,1.65-2c-0.27-2.56-2.22-4.8-4.86-5.25c-1.39-0.24-1.62-0.82-1.38-2.07
		c0.48-2.5,2.32-3.53,4.58-4.32c-0.84-0.41-1.49-0.73-2.63-1.29c1.6-0.65,2.68-1.12,3.78-1.52c1.05-0.38,1.37-1.12,0.41-1.66
		c-1.22-0.7-2.67-1.01-4.03-1.47c-0.5-0.17-1.21-0.17-1.48-0.52c-0.77-0.98-1.36-2.11-2.17-3.4c2.06-0.6,4.24-1.3,6.46-1.86
		c1.8-0.45,2.86,0.45,2.82,2.31c-0.03,1.36-0.16,2.72-0.27,4.08c-0.43,5.2-1,10.4-0.15,15.04c1.11,0.58,1.86,0.98,2.86,1.51
		c1.64-2.91,3.32-5.8,4.88-8.75c0.35-0.67,0.45-1.54,0.46-2.31C109.66,123.19,109.78,119.71,109.55,116.25z M86.61,132.43
		c-1.62,1.06-3.37,1.96-5.12,2.81c-0.61,0.3-1.37,0.3-2.06,0.43c-0.08-0.12-0.17-0.24-0.25-0.36c0.6-0.86,1.21-1.71,1.79-2.58
		c0.36-0.54,0.86-1.08,0.97-1.68c0.18-0.97,0.46-1.66,1.56-1.57c1.35,0.11,2.99-0.44,3.8,1.1
		C87.52,130.99,87.08,132.13,86.61,132.43z"/>
	<path class="st0" d="M185.97,92.63c-1.35-2.85-3.73-4.73-6.56-5.76c-3.22-1.17-6.61-0.59-10.01,0c-0.1,1.55-1.79,2.69-0.8,4.32
		c-2.18,1.79,1.45,2.53,0.69,4.14c-2.75-1.71-5.25-3.91-8.54-4.54c-1.31,2.7-1.31,2.7-1.22,5.38c0.01,0.34-0.01,0.68-0.06,1.02
		c-0.59,4.1-1.17,8.19-1.78,12.29c-0.5,3.37,0.81,5.78,3.84,7.3c0.4-0.58,0.77-1.12,1.27-1.85c0.63,0.98,0.85,1.32,1.23,1.92
		c0.53-1.08,0.93-1.91,1.52-3.11c0.31,0.84,0.42,1.14,0.54,1.47c0.6-0.23,1.26-0.73,1.63-0.58c1.5,0.65,2.98,1.39,4.33,2.3
		c2.26,1.53,4.66,2.56,7.4,2.73c0.9,0.06,1.47-0.1,1.62-1.22c0.08-0.55,0.75-1.27,1.31-1.46c1.71-0.57,1.87-1.66,1.59-3.2
		c-0.88-4.87-0.41-9.61,1.73-14.1C186.81,97.31,187.09,95,185.97,92.63z M174.78,106.68c-0.02,0.41-0.41,1.02-0.77,1.15
		c-2.22,0.79-4.48,1.46-7.15,2.31c1.8-4.95,4.19-9.4,3.33-14.72c0.84,2.01,2.54,1.81,4.09,2.06c0.32,0.05,0.77,0.68,0.77,1.04
		C175.02,101.24,174.93,103.97,174.78,106.68z"/>
	<path class="st0" d="M387.75,249.83c-0.34-0.98-0.97-1.9-1.08-2.9c-0.31-2.76-0.34-5.54-0.62-8.31c-0.19-1.84-0.96-2.42-2.84-2.42
		c-3.25-0.01-5.52,1.86-7.5,4.11c-0.45,0.52-0.43,1.45-0.63,2.19c0.76-0.03,1.66,0.2,2.26-0.12c1.54-0.82,2.95-1.91,4.43-2.85
		c0.88-0.56,1.54-0.41,1.65,0.75c0.16,1.79,0.27,3.58,0.42,5.51c-0.62-0.09-1.06-0.14-1.48-0.21c-3.98-0.73-7.38,2.39-7,6.42
		c0.22,2.35,1.83,3.8,4.17,3.37c1.41-0.26,2.7-1.08,4.06-1.63c0.98-0.39,1.98-0.75,2.98-1.11c0.59-0.21,1.66-0.36,1.69-0.62
		C388.33,251.31,388,250.54,387.75,249.83z M382.17,251.12c-0.76,0.37-1.5,0.81-2.29,1.1c-0.42,0.15-1.18,0.25-1.34,0.03
		c-0.28-0.38-0.47-1.2-0.25-1.49c0.73-0.95,1.58-1.85,2.56-2.52c0.29-0.2,1.19,0.37,1.72,0.72c0.29,0.18,0.4,0.64,0.59,0.97
		c0.13,0.17,0.26,0.34,0.38,0.51C383.08,250.66,382.63,250.89,382.17,251.12z"/>
	<path class="st0" d="M432.91,250.16c-1.06-1.41-1.33-2.92-1.37-4.61c-0.05-2.26-0.22-4.53-0.46-6.78
		c-0.21-1.98-1.06-2.65-3.07-2.55c-3.42,0.17-5.6,2.5-7.81,4.68c-0.28,0.28-0.13,1.32,0.17,1.75c0.19,0.27,1.18,0.26,1.6,0.02
		c1.61-0.95,3.12-2.06,4.69-3.08c0.66-0.43,1.5-0.79,1.67,0.39c0.27,1.88,0.34,3.79,0.49,5.72c-1.06-0.1-1.9-0.26-2.73-0.25
		c-2.4,0.03-4.5,1.56-5.34,3.81c-0.82,2.2-0.47,4.27,1.02,5.47c2.09,1.69,3.94,0.36,5.82-0.52c0.15-0.07,0.3-0.17,0.45-0.23
		c1.21-0.44,2.4-1.05,3.65-1.26C433.53,252.4,434.04,251.66,432.91,250.16z M428.28,250.54c-1.15,0.57-2.28,1.18-3.45,1.69
		c-0.36,0.16-1.07,0.25-1.18,0.08c-0.28-0.42-0.59-1.19-0.39-1.49c0.63-0.94,1.38-2.21,2.29-2.42c0.82-0.19,1.92,0.86,2.9,1.37
		C428.4,250.03,428.34,250.28,428.28,250.54z"/>
	<path class="st0" d="M372.9,247.79c-1.21,0.57-2.42,1.13-3.62,1.72c-2.5,1.21-4.03,0.58-5.05-2.28c2.26-0.72,4.44-1.36,6.57-2.11
		c2.11-0.75,2.54-2.38,1.11-4.09c-1.44-1.73-3.41-2.26-5.53-1.95c-4.63,0.67-6.75,5.04-4.84,9.78c1.88,4.66,8.02,5.58,11.08,1.6
		c0.47-0.61,0.55-1.52,0.82-2.29C373.24,248.03,373.07,247.91,372.9,247.79z M369.84,242.74c-2.01,0.49-3.68,0.89-5.34,1.29
		C365.92,241.5,367.47,241.16,369.84,242.74z"/>
</g>
</svg>
